<svg 
 xmlns="http://www.w3.org/2000/svg"
 xmlns:xlink="http://www.w3.org/1999/xlink"
 width="56px" height="46px">
<path fill-rule="evenodd"  fill="rgb(227, 227, 227)"
 d="M56.006,14.537 C56.006,14.493 55.969,14.471 55.962,14.427 C55.951,14.332 55.969,14.233 55.929,14.141 L50.173,0.619 C50.015,0.250 49.647,0.005 49.239,0.005 L6.763,0.005 C6.354,0.005 5.987,0.250 5.828,0.619 L0.069,14.141 C0.028,14.233 0.047,14.332 0.032,14.427 C0.028,14.471 -0.009,14.493 -0.009,14.537 C-0.009,14.558 0.014,14.573 0.014,14.595 C0.028,14.814 0.091,15.026 0.242,15.202 L27.238,45.646 C27.260,45.672 27.300,45.662 27.322,45.686 C27.396,45.752 27.454,45.811 27.543,45.858 C27.561,45.866 27.565,45.898 27.591,45.906 C27.723,45.961 27.863,45.990 27.995,45.990 C28.131,45.990 28.271,45.961 28.403,45.906 C28.429,45.898 28.433,45.866 28.451,45.855 C28.540,45.811 28.598,45.752 28.668,45.686 C28.694,45.662 28.735,45.672 28.757,45.646 L55.753,15.202 C55.903,15.026 55.969,14.814 55.984,14.595 C55.984,14.573 56.006,14.558 56.006,14.537 ZM34.884,2.019 L39.849,13.531 L16.149,13.531 L21.117,2.019 L34.884,2.019 ZM39.834,15.542 L27.995,42.466 L16.163,15.542 L39.834,15.542 ZM13.949,15.542 L24.472,39.487 L3.243,15.542 L13.949,15.542 ZM42.049,15.542 L52.751,15.542 L31.522,39.483 L42.049,15.542 ZM53.468,13.531 L42.052,13.531 L37.087,2.019 L48.566,2.019 L53.468,13.531 ZM7.432,2.019 L18.918,2.019 L13.949,13.531 L2.529,13.531 L7.432,2.019 Z"/>
</svg>