<svg 
 xmlns="http://www.w3.org/2000/svg"
 xmlns:xlink="http://www.w3.org/1999/xlink"
 width="46px" height="46px">
<path fill-rule="evenodd"  fill="rgb(227, 227, 227)"
 d="M43.505,14.400 C43.344,14.560 43.131,14.638 42.921,14.638 C42.803,14.638 42.708,14.554 42.606,14.511 C43.703,17.060 44.318,19.865 44.318,22.807 C44.318,29.678 40.988,35.778 35.861,39.646 C36.506,39.922 37.098,40.335 37.457,40.952 C37.911,41.729 38.029,42.637 37.793,43.506 C37.560,44.375 36.996,45.098 36.210,45.546 C35.697,45.839 35.109,45.998 34.517,45.998 C33.314,45.998 32.189,45.354 31.584,44.314 C31.223,43.690 31.144,43.003 31.207,42.340 C28.677,43.389 25.903,43.973 22.992,43.973 C20.079,43.973 17.301,43.389 14.769,42.334 C14.833,43.001 14.756,43.688 14.396,44.311 C13.794,45.350 12.666,45.996 11.456,45.996 C10.862,45.996 10.279,45.839 9.763,45.546 C8.975,45.092 8.413,44.363 8.178,43.495 C7.948,42.627 8.071,41.723 8.524,40.950 C8.879,40.331 9.467,39.916 10.114,39.644 C4.991,35.772 1.659,29.676 1.659,22.807 C1.659,19.867 2.271,17.064 3.368,14.519 C3.264,14.564 3.169,14.647 3.057,14.647 C2.845,14.647 2.634,14.566 2.473,14.406 C-0.846,11.113 -0.846,5.753 2.473,2.457 C5.797,-0.833 11.197,-0.835 14.515,2.457 C14.764,2.703 14.762,3.048 14.627,3.350 C17.199,2.259 20.025,1.651 22.992,1.651 C25.959,1.651 28.784,2.259 31.351,3.350 C31.217,3.048 31.215,2.702 31.463,2.451 C34.786,-0.835 40.187,-0.839 43.505,2.451 C46.824,5.749 46.824,11.109 43.505,14.400 ZM33.016,43.495 C33.478,44.285 34.575,44.588 35.384,44.123 C35.788,43.892 36.076,43.520 36.194,43.077 C36.315,42.637 36.254,42.169 36.019,41.774 C35.711,41.243 35.135,40.910 34.513,40.910 C34.214,40.910 33.912,40.993 33.653,41.143 C32.827,41.617 32.541,42.673 33.016,43.495 ZM9.958,41.769 C9.724,42.169 9.662,42.631 9.781,43.071 C9.899,43.516 10.190,43.890 10.594,44.123 C11.395,44.588 12.505,44.283 12.960,43.495 C13.438,42.673 13.152,41.615 12.326,41.143 C12.059,40.991 11.761,40.909 11.458,40.909 C10.841,40.909 10.265,41.241 9.958,41.769 ZM13.346,3.618 C10.674,0.971 6.320,0.971 3.642,3.618 C0.970,6.276 0.970,10.596 3.642,13.245 C3.750,13.351 3.766,13.493 3.803,13.630 C5.898,9.336 9.406,5.857 13.733,3.778 C13.595,3.743 13.452,3.723 13.346,3.618 ZM22.992,3.293 C12.144,3.293 3.316,12.049 3.316,22.807 C3.316,33.574 12.144,42.331 22.992,42.331 C33.839,42.331 42.661,33.574 42.661,22.807 C42.661,12.049 33.839,3.293 22.992,3.293 ZM42.337,3.614 C39.662,0.966 35.309,0.966 32.631,3.614 C32.525,3.722 32.381,3.740 32.245,3.776 C36.569,5.855 40.076,9.334 42.176,13.623 C42.211,13.488 42.227,13.345 42.337,13.237 C45.005,10.589 45.005,6.269 42.337,3.614 ZM22.992,38.885 C14.132,38.885 6.926,31.736 6.926,22.947 C6.926,14.157 14.132,7.011 22.992,7.011 C31.848,7.011 39.051,14.157 39.051,22.947 C39.051,31.736 31.848,38.885 22.992,38.885 ZM22.992,8.653 C15.044,8.653 8.582,15.065 8.582,22.947 C8.582,30.827 15.044,37.242 22.992,37.242 C30.935,37.242 37.398,30.827 37.398,22.947 C37.398,15.065 30.935,8.653 22.992,8.653 ZM27.786,28.584 C27.573,28.584 27.359,28.504 27.200,28.345 L22.408,23.587 C22.250,23.436 22.164,23.224 22.164,23.009 L22.164,12.914 C22.164,12.460 22.534,12.092 22.992,12.092 C23.450,12.092 23.820,12.460 23.820,12.914 L23.820,22.669 L28.372,27.182 C28.693,27.501 28.693,28.024 28.372,28.345 C28.208,28.504 27.999,28.584 27.786,28.584 Z"/>
</svg>